<svg xmlns="http://www.w3.org/2000/svg" viewBox="0 0 64 64" x="0px" y="0px"><title>Bug-database-computer-virus</title><g><path d="M16,37H10.46l-5.7-6.65-1.518,1.3,6,7A1,1,0,0,0,10,39h6v2a15.869,15.869,0,0,0,.959,5.4l-7.406,3.7A1,1,0,0,0,9,51V62h2V51.618l6.752-3.376a15.969,15.969,0,0,0,28.5,0L53,51.618V62h2V51a1,1,0,0,0-.553-.9l-7.406-3.7A15.869,15.869,0,0,0,48,41V39h6a1,1,0,0,0,.759-.35l6-7-1.518-1.3L53.54,37H48V26.738c0-.026,0-.051,0-.077l6.4-2.742A1,1,0,0,0,55,23V13H53v9.341l-5.3,2.27A7.717,7.717,0,0,0,42,19.2v-.679a8.5,8.5,0,0,0-3.351-6.758l3.058-3.058A1,1,0,0,0,42,8V2H40V7.586l-3.125,3.125a8.469,8.469,0,0,0-3.4-.711H30.523a8.469,8.469,0,0,0-3.4.711L24,7.586V2H22V8a1,1,0,0,0,.293.707l3.058,3.058A8.5,8.5,0,0,0,22,18.523V19.2a7.717,7.717,0,0,0-5.7,5.409L11,22.341V13H9V23a1,1,0,0,0,.606.919L16,26.661c0,.026,0,.051,0,.077ZM33,54.949V32H46v9A14.007,14.007,0,0,1,33,54.949ZM24,18.523A6.531,6.531,0,0,1,30.523,12h2.954A6.531,6.531,0,0,1,40,18.523v2.231A3.249,3.249,0,0,1,36.754,24H27.246A3.249,3.249,0,0,1,24,20.754Zm-6,8.215a5.728,5.728,0,0,1,4.05-5.487A5.235,5.235,0,0,0,27.246,26h9.508a5.235,5.235,0,0,0,5.2-4.749A5.728,5.728,0,0,1,46,26.738V30H18ZM18,32H31V54.949A14.007,14.007,0,0,1,18,41Z"></path><rect x="29" y="15" width="2" height="2"></rect><rect x="33" y="15" width="2" height="2"></rect><path d="M25.1,50.817l1.15-1.634A10.023,10.023,0,0,1,22,41V38H20v3A12.019,12.019,0,0,0,25.1,50.817Z"></path><rect x="20" y="34" width="2" height="2"></rect></g></svg>