<svg xmlns="http://www.w3.org/2000/svg" xmlns:xlink="http://www.w3.org/1999/xlink" version="1.1" x="0px" y="0px" viewBox="0 0 34 34" enable-background="new 0 0 34 34" xml:space="preserve"><path d="M30,17h-4.525c-0.339-0.954-0.829-1.835-1.45-2.611l3.682-3.682C27.895,10.52,28,10.266,28,10V5c0-0.553-0.447-1-1-1  c-0.553,0-1,0.447-1,1v4.586l-3.389,3.389c-0.228-0.182-0.464-0.353-0.709-0.513c0.708-1,1.102-2.207,1.102-3.464  c0-1.294-0.416-2.491-1.116-3.472l2.819-2.819c0.391-0.391,0.391-1.023,0-1.414c-0.391-0.391-1.023-0.391-1.414,0l-2.819,2.819  c-0.981-0.699-2.177-1.114-3.47-1.114c-1.293,0-2.489,0.415-3.469,1.114l-2.819-2.819c-0.391-0.391-1.024-0.391-1.414,0  c-0.391,0.391-0.391,1.023,0,1.414l2.819,2.818c-0.7,0.981-1.116,2.178-1.116,3.473c0,1.248,0.394,2.454,1.103,3.459  c-0.248,0.161-0.488,0.334-0.718,0.518L8,9.586V5c0-0.553-0.447-1-1-1C6.447,4,6,4.447,6,5v5c0,0.266,0.105,0.52,0.293,0.707  l3.682,3.682C9.354,15.165,8.864,16.046,8.525,17H4c-0.553,0-1,0.447-1,1v5c0,0.553,0.447,1,1,1c0.553,0,1-0.447,1-1v-4h3.059  C8.022,19.329,8,19.662,8,20c0,1.102,0.209,2.154,0.573,3.13L6.19,26.413C6.066,26.583,6,26.789,6,27v5c0,0.553,0.447,1,1,1  c0.553,0,1-0.447,1-1v-4.676l1.603-2.209C11.23,27.459,13.937,29,17,29c3.063,0,5.77-1.541,7.396-3.885L26,27.324V32  c0,0.553,0.447,1,1,1c0.553,0,1-0.447,1-1v-5c0-0.211-0.066-0.417-0.19-0.587l-2.382-3.283C25.791,22.154,26,21.102,26,20  c0-0.338-0.022-0.671-0.059-1H29v4c0,0.553,0.447,1,1,1c0.553,0,1-0.447,1-1v-5C31,17.447,30.553,17,30,17z M13.004,8.998  c0-1.101,0.447-2.099,1.169-2.822c0.002-0.002,0.005-0.003,0.007-0.005c0.002-0.002,0.002-0.004,0.004-0.006  c0.724-0.72,1.72-1.167,2.82-1.167c1.101,0,2.099,0.447,2.823,1.169c0.001,0.001,0.001,0.003,0.003,0.004  c0.001,0.001,0.003,0.002,0.005,0.003c0.722,0.724,1.17,1.722,1.17,2.824c0,0.948-0.347,1.843-0.94,2.55  C19.106,11.2,18.077,11,17,11c-1.074,0-2.099,0.199-3.055,0.545C13.351,10.831,13.004,9.938,13.004,8.998z M10,20  c0-3.519,2.614-6.432,6-6.92v13.84C12.614,26.432,10,23.519,10,20z M18,26.92V13.08c3.386,0.488,6,3.401,6,6.92  C24,23.519,21.386,26.432,18,26.92z"></path></svg>