<svg xmlns="http://www.w3.org/2000/svg" xmlns:xlink="http://www.w3.org/1999/xlink" version="1.1" x="0px" y="0px" viewBox="0 0 100 100" enable-background="new 0 0 100 100" xml:space="preserve"><path d="M50,90.95c-11.325,0-21.101-3.999-29.057-11.884C13.049,71.102,9.05,61.325,9.05,50.001  c0-11.226,3.998-20.968,11.883-28.954c0.994-0.971,2.015-1.883,3.055-2.73l-6.444-6.402c-0.588-0.583-0.591-1.533-0.007-2.121  c0.584-0.587,1.534-0.59,2.121-0.006l7.649,7.6c0.31,0.307,0.47,0.732,0.439,1.168c-0.03,0.434-0.248,0.834-0.597,1.096  c-1.409,1.057-2.789,2.242-4.102,3.523C15.757,30.56,12.05,39.592,12.05,50.001c0,10.505,3.706,19.569,11.016,26.944  C30.429,84.244,39.494,87.95,50,87.95c10.407,0,19.439-3.706,26.848-11.017C84.212,69.566,87.951,60.502,87.951,50  c0-10.405-3.739-19.437-11.113-26.842c-1.212-1.244-2.458-2.331-3.718-3.245c-0.354-0.256-0.577-0.653-0.614-1.088  c-0.035-0.436,0.118-0.865,0.424-1.176l7.7-7.85c0.581-0.593,1.53-0.602,2.121-0.021c0.592,0.58,0.601,1.53,0.021,2.121  l-6.519,6.646c0.927,0.761,1.838,1.6,2.724,2.508C86.918,29.029,90.952,38.773,90.952,50c0,11.326-4.034,21.104-11.989,29.061  C70.966,86.953,61.225,90.95,50,90.95z"></path><path d="M73.999,20.2c-0.349,0-0.698-0.12-0.981-0.366c-0.442-0.385-0.873-0.711-1.277-0.971C65.4,14.328,58.105,12.05,50,12.05  c-8.206,0-15.531,2.277-21.774,6.769c-0.382,0.256-0.694,0.497-0.973,0.748c-0.616,0.553-1.564,0.504-2.119-0.113  c-0.554-0.616-0.503-1.564,0.113-2.119c0.386-0.346,0.813-0.676,1.271-0.981C33.237,11.518,41.152,9.05,50,9.05  c8.746,0,16.627,2.466,23.423,7.331c0.464,0.295,1.009,0.708,1.56,1.186c0.627,0.543,0.693,1.49,0.15,2.117  C74.836,20.025,74.419,20.2,73.999,20.2z"></path><path d="M64.9,46.251c-2.344,0-4.369-0.858-6.023-2.553c-0.973-0.931-1.635-2.052-1.936-3.298c-0.154-0.643,0.131-1.313,0.703-1.646  l11.398-6.649c0.002-0.001,0.004-0.002,0.006-0.003l4.398-2.549c0.714-0.416,1.633-0.172,2.05,0.546  c0.415,0.717,0.171,1.634-0.546,2.05l-2.917,1.69c0.741,1.213,1.114,2.573,1.114,4.062c0,2.339-0.82,4.294-2.438,5.813  C69.127,45.396,67.172,46.251,64.9,46.251z M60.271,40.694c0.188,0.304,0.424,0.593,0.717,0.873  c1.117,1.145,2.387,1.684,3.912,1.684c1.441,0,2.637-0.53,3.65-1.622c0.025-0.027,0.053-0.054,0.08-0.08  c1.021-0.945,1.52-2.139,1.52-3.648c0-0.949-0.234-1.792-0.711-2.553L60.271,40.694z"></path><path d="M35.85,46.251c-2.269,0-4.222-0.852-5.804-2.532c-1.656-1.518-2.496-3.475-2.496-5.818c0-1.494,0.385-2.857,1.146-4.072  l-2.897-1.68c-0.717-0.416-0.961-1.333-0.546-2.05c0.415-0.718,1.332-0.962,2.05-0.546l4.371,2.533  c0.021,0.011,0.041,0.022,0.061,0.035l11.372,6.633c0.572,0.334,0.858,1.004,0.702,1.648c-0.301,1.246-0.963,2.366-1.97,3.331  C40.175,45.396,38.152,46.251,35.85,46.251z M31.293,35.337c-0.499,0.765-0.743,1.611-0.743,2.563c0,1.503,0.509,2.692,1.555,3.637  c0.033,0.029,0.064,0.061,0.094,0.092c1.015,1.092,2.209,1.622,3.651,1.622c1.499,0,2.771-0.544,3.89-1.661  c0.304-0.292,0.548-0.588,0.737-0.896L31.293,35.337z"></path><path d="M63.15,74.55c-0.83,0-1.5-0.671-1.5-1.5v-4.299H39.9v3.799c0,0.829-0.672,1.5-1.5,1.5c-0.829,0-1.5-0.671-1.5-1.5v-5.299  c0-0.829,0.671-1.5,1.5-1.5h24.75c0.828,0,1.5,0.671,1.5,1.5v5.799C64.65,73.879,63.979,74.55,63.15,74.55z"></path><path d="M38.4,68.751H35c-0.829,0-1.5-0.671-1.5-1.5s0.671-1.5,1.5-1.5h3.4c0.828,0,1.5,0.671,1.5,1.5S39.229,68.751,38.4,68.751z"></path><path d="M65.25,68.751h-2.1c-0.83,0-1.5-0.671-1.5-1.5s0.67-1.5,1.5-1.5h2.1c0.828,0,1.5,0.671,1.5,1.5S66.078,68.751,65.25,68.751z  "></path></svg>