<svg xmlns="http://www.w3.org/2000/svg" xmlns:xlink="http://www.w3.org/1999/xlink" version="1.1" x="0px" y="0px" viewBox="0 0 100 100" enable-background="new 0 0 100 100" xml:space="preserve"><path d="M84.729,66.121c-2.389,0-4.553,0.964-6.127,2.522l-10.756-6.721c2.912-3.709,4.654-8.383,4.654-13.464  c0-0.594-0.031-1.182-0.078-1.764l6.174-1.863c1.514,2.614,4.334,4.376,7.57,4.376c4.832,0,8.75-3.917,8.75-8.75  s-3.918-8.75-8.75-8.75s-8.75,3.917-8.75,8.75c0,0.183,0.018,0.362,0.027,0.543l-5.711,1.723c-1.6-5.891-5.602-10.791-10.891-13.583  l2.287-7.942c0.066,0.001,0.131,0.01,0.197,0.01c4.373,0,7.918-3.545,7.918-7.917s-3.545-7.917-7.918-7.917  s-7.918,3.545-7.918,7.917c0,2.895,1.559,5.419,3.877,6.8l-2.162,7.505c-2.041-0.631-4.209-0.972-6.458-0.972  c-4.847,0-9.323,1.582-12.946,4.255l-7.798-7.714c0.58-1.05,0.912-2.256,0.912-3.54c0-4.05-3.283-7.333-7.334-7.333  c-4.05,0-7.333,3.283-7.333,7.333s3.283,7.333,7.333,7.333c1.313,0,2.541-0.349,3.606-0.953l7.62,7.539  c-3.653,3.903-5.894,9.145-5.894,14.913c0,0.262,0.011,0.521,0.02,0.781l-9.239,2.917c-1.396-2.207-3.851-3.677-6.654-3.677  c-4.35,0-7.875,3.525-7.875,7.875s3.525,7.875,7.875,7.875s7.875-3.525,7.875-7.875c0-0.129-0.013-0.255-0.02-0.383l8.558-2.701  c1.05,4.668,3.594,8.768,7.105,11.774l-5.06,9.556c-0.745-0.199-1.525-0.316-2.334-0.316c-4.971,0-9,4.029-9,9s4.029,9,9,9  s9-4.029,9-9c0-2.726-1.216-5.162-3.13-6.813l4.815-9.098c3.208,1.853,6.927,2.918,10.896,2.918c0.275,0,0.549-0.012,0.821-0.021  l1.947,9.824c-2.526,1.254-4.266,3.852-4.266,6.863c0,4.234,3.432,7.667,7.667,7.667c4.232,0,7.666-3.433,7.666-7.667  c0-4.057-3.154-7.368-7.143-7.639l-1.895-9.563c3.613-0.811,6.885-2.516,9.576-4.871l11.447,7.152  c-0.299,0.877-0.467,1.813-0.467,2.791c0,4.811,3.898,8.709,8.709,8.709c4.809,0,8.709-3.898,8.709-8.709  C93.438,70.021,89.537,66.121,84.729,66.121z M32.934,43.875l12.858,5.736C34.318,57.425,32.934,43.875,32.934,43.875z   M54.207,49.611l12.857-5.736C67.064,43.875,65.682,57.425,54.207,49.611z"></path></svg>