<svg xmlns="http://www.w3.org/2000/svg" xmlns:xlink="http://www.w3.org/1999/xlink" version="1.1" x="0px" y="0px" viewBox="0 0 66 66" style="enable-background:new 0 0 66 66;" xml:space="preserve"><g><path d="M40.5,39h-15c-0.6,0-1,0.4-1,1s0.4,1,1,1h1v2.5c0,0.6,0.4,1,1,1s1-0.4,1-1V41H32v2.5c0,0.6,0.4,1,1,1   s1-0.4,1-1V41h3.5v2.5c0,0.6,0.4,1,1,1s1-0.4,1-1V41h1c0.6,0,1-0.4,1-1S41.1,39,40.5,39z"></path><path d="M61.8,52.6V45c0-0.4-0.3-0.8-0.7-1l-9.6-2.8c1.6-2.5,2.6-5.2,3.1-8.2l6.7-3.9c0.3-0.2,0.5-0.5,0.5-0.9   V13.4c1.8-0.4,3.2-2.1,3.2-4c0-2.3-1.9-4.2-4.2-4.2s-4.2,1.9-4.2,4.2c0,2,1.4,3.6,3.2,4v14.3l-4.9,2.9c0-0.4,0-0.8,0-1.2   C55,17.3,45.1,7.4,33,7.4c-12.1,0-22,9.8-22,21.9c0,0.4,0,0.8,0,1.2l-4.9-2.9V13.4c1.8-0.5,3.2-2.1,3.2-4c0-2.3-1.9-4.2-4.2-4.2   S1,7.1,1,9.4c0,2,1.4,3.6,3.2,4v14.8c0,0.4,0.2,0.7,0.5,0.9l6.7,3.9c0.5,2.9,1.6,5.7,3.1,8.2L4.9,44c-0.4,0.1-0.7,0.5-0.7,1v7.6   C2.4,53,1,54.6,1,56.6c0,2.3,1.9,4.2,4.2,4.2s4.2-1.9,4.2-4.2c0-2-1.4-3.6-3.2-4v-6.8l9.6-2.8c1.6,2.1,3.6,3.8,5.9,5.2v5.5   c0,0.6,0.4,1,1,1h20.7c0.6,0,1-0.4,1-1v-5.5c2.3-1.4,4.3-3.2,5.9-5.2l9.6,2.8v6.8c-1.8,0.5-3.2,2.1-3.2,4c0,2.3,1.9,4.2,4.2,4.2   s4.2-1.9,4.2-4.2C65,54.6,63.6,53,61.8,52.6z M58.7,9.4c0-1.2,1-2.2,2.2-2.2s2.2,1,2.2,2.2s-1,2.2-2.2,2.2S58.7,10.6,58.7,9.4z    M3,9.4c0-1.2,1-2.2,2.2-2.2s2.2,1,2.2,2.2s-1,2.2-2.2,2.2S3,10.6,3,9.4z M7.3,56.6c0,1.2-1,2.2-2.2,2.2S3,57.8,3,56.6   s1-2.2,2.2-2.2S7.3,55.4,7.3,56.6z M42.9,46.7c-0.3,0.2-0.5,0.5-0.5,0.9v5H23.6v-5c0-0.4-0.2-0.7-0.5-0.9   C16.9,43.2,13,36.5,13,29.4c0-11,9-19.9,20-19.9C44,9.4,53,18.4,53,29.4C53,36.5,49.1,43.2,42.9,46.7z M60.8,58.8   c-1.2,0-2.2-1-2.2-2.2s1-2.2,2.2-2.2s2.2,1,2.2,2.2S62,58.8,60.8,58.8z"></path><path d="M40.9,17.8c-0.6,0-1,0.4-1,1c0,1.7-1.4,3.1-3.1,3.1c-0.6,0-1,0.4-1,1c0,6.8,10.3,6.8,10.3,0   C46.1,20.1,43.8,17.8,40.9,17.8z M37.9,23.8c1.9-0.4,3.5-2,3.9-3.9c1.3,0.4,2.3,1.6,2.3,3C44.1,26.5,38.9,27.3,37.9,23.8z"></path><path d="M30.2,22.9c0-0.6-0.4-1-1-1c-1.7,0-3.1-1.4-3.1-3.1c0-0.6-0.4-1-1-1c-2.8,0-5.1,2.3-5.1,5.1   C19.9,29.7,30.2,29.7,30.2,22.9z M21.9,22.9c0-1.4,1-2.6,2.3-3c0.4,1.9,2,3.5,3.9,3.9C27.1,27.2,21.9,26.5,21.9,22.9z"></path></g></svg>