<svg xmlns="http://www.w3.org/2000/svg" xmlns:xlink="http://www.w3.org/1999/xlink" version="1.1" x="0px" y="0px" viewBox="0 0 72 72" enable-background="new 0 0 72 72" xml:space="preserve"><path d="M71.1,48.1l-9.7-11.9c-0.4-0.4-0.9-0.7-1.5-0.7H49.5c-0.1-0.4-0.3-0.8-0.4-1.3l8.4-2.4c0.5-0.1,0.9-0.5,1.1-0.9l8.7-15.1  c0.5-0.9,0.2-2.1-0.7-2.6c-0.9-0.5-2.1-0.2-2.6,0.7l-8.3,14.5l-8.5,2.5c-0.1-0.1-0.1-0.1-0.2-0.2l6-9.4c0.3-0.5,0.4-1.1,0.2-1.6  l-5-15.5c-0.3-1-1.4-1.5-2.4-1.2c-1,0.3-1.5,1.4-1.2,2.4L49.3,20l-5.1,8c-1.2-0.9-2.5-1.6-4-2c0.2-0.5,0.3-1,0.3-1.6  c0-2.4-2-4.4-4.4-4.4c-2.4,0-4.4,2-4.4,4.4c0,0.6,0.1,1.1,0.3,1.6c-1.5,0.5-3,1.2-4.2,2.2L22.7,20l4.8-14.7c0.3-1-0.2-2.1-1.2-2.4  c-1-0.3-2.1,0.2-2.4,1.2l-5,15.5c-0.2,0.5-0.1,1.1,0.2,1.6l6.1,9.6c0,0,0,0,0,0l-8.8-2.5L8,13.9c-0.5-0.9-1.7-1.2-2.6-0.7  c-0.9,0.5-1.2,1.7-0.7,2.6l8.7,15.1c0.2,0.4,0.6,0.7,1.1,0.9l8.8,2.5c-0.1,0.4-0.3,0.8-0.4,1.2H12.1c-0.6,0-1.1,0.3-1.5,0.7  L0.9,48.1c-0.7,0.8-0.5,2,0.3,2.7c0.8,0.7,2,0.5,2.7-0.3L13,39.2h8.1l-7.3,4.8c-0.4,0.3-0.7,0.8-0.8,1.3L9.7,67  c-0.2,1,0.5,2,1.6,2.2c0.1,0,0.2,0,0.3,0c0.9,0,1.7-0.7,1.9-1.6l3.2-20.8l6.2-4.1c1.6,5.9,6.9,10.2,13.3,10.2  c6.3,0,11.6-4.2,13.3-10l5.9,3.9l3.2,20.8c0.1,0.9,0.9,1.6,1.9,1.6c0.1,0,0.2,0,0.3,0c1-0.2,1.7-1.1,1.6-2.2L59,45.4  c-0.1-0.5-0.4-1-0.8-1.3l-7.3-4.8H59l9.2,11.2c0.7,0.8,1.9,0.9,2.7,0.3C71.6,50.1,71.7,48.9,71.1,48.1z M36.2,44.3  c-3.1,0-5.7-2.5-5.7-5.7c0-3.1,2.5-5.7,5.7-5.7c3.1,0,5.7,2.5,5.7,5.7C41.8,41.8,39.3,44.3,36.2,44.3z"></path></svg>